<svg xmlns="http://www.w3.org/2000/svg" viewBox="0 0 1100 470" width="1100" height="470" font-size="18" role="img">
  <title>The render cache: a cached layer and the live tiles</title>
  <g id="grid">
    <line x1="100" y1="30" x2="100" y2="390" stroke="currentColor" stroke-opacity="0.25"/><line x1="140" y1="30" x2="140" y2="390" stroke="currentColor" stroke-opacity="0.25"/><line x1="180" y1="30" x2="180" y2="390" stroke="currentColor" stroke-opacity="0.25"/><line x1="220" y1="30" x2="220" y2="390" stroke="currentColor" stroke-opacity="0.25"/><line x1="260" y1="30" x2="260" y2="390" stroke="currentColor" stroke-opacity="0.25"/><line x1="300" y1="30" x2="300" y2="390" stroke="currentColor" stroke-opacity="0.25"/><line x1="340" y1="30" x2="340" y2="390" stroke="currentColor" stroke-opacity="0.25"/><line x1="380" y1="30" x2="380" y2="390" stroke="currentColor" stroke-opacity="0.25"/><line x1="420" y1="30" x2="420" y2="390" stroke="currentColor" stroke-opacity="0.25"/><line x1="460" y1="30" x2="460" y2="390" stroke="currentColor" stroke-opacity="0.25"/><line x1="500" y1="30" x2="500" y2="390" stroke="currentColor" stroke-opacity="0.25"/><line x1="540" y1="30" x2="540" y2="390" stroke="currentColor" stroke-opacity="0.25"/><line x1="580" y1="30" x2="580" y2="390" stroke="currentColor" stroke-opacity="0.25"/><line x1="620" y1="30" x2="620" y2="390" stroke="currentColor" stroke-opacity="0.25"/><line x1="660" y1="30" x2="660" y2="390" stroke="currentColor" stroke-opacity="0.25"/><line x1="700" y1="30" x2="700" y2="390" stroke="currentColor" stroke-opacity="0.25"/><line x1="740" y1="30" x2="740" y2="390" stroke="currentColor" stroke-opacity="0.25"/><line x1="780" y1="30" x2="780" y2="390" stroke="currentColor" stroke-opacity="0.25"/><line x1="820" y1="30" x2="820" y2="390" stroke="currentColor" stroke-opacity="0.25"/><line x1="860" y1="30" x2="860" y2="390" stroke="currentColor" stroke-opacity="0.25"/><line x1="900" y1="30" x2="900" y2="390" stroke="currentColor" stroke-opacity="0.25"/><line x1="100" y1="30" x2="900" y2="30" stroke="currentColor" stroke-opacity="0.25"/><line x1="100" y1="70" x2="900" y2="70" stroke="currentColor" stroke-opacity="0.25"/><line x1="100" y1="110" x2="900" y2="110" stroke="currentColor" stroke-opacity="0.25"/><line x1="100" y1="150" x2="900" y2="150" stroke="currentColor" stroke-opacity="0.25"/><line x1="100" y1="190" x2="900" y2="190" stroke="currentColor" stroke-opacity="0.25"/><line x1="100" y1="230" x2="900" y2="230" stroke="currentColor" stroke-opacity="0.25"/><line x1="100" y1="270" x2="900" y2="270" stroke="currentColor" stroke-opacity="0.25"/><line x1="100" y1="310" x2="900" y2="310" stroke="currentColor" stroke-opacity="0.25"/><line x1="100" y1="350" x2="900" y2="350" stroke="currentColor" stroke-opacity="0.25"/><line x1="100" y1="390" x2="900" y2="390" stroke="currentColor" stroke-opacity="0.25"/>
    <text x="88" y="50" font-size="16" text-anchor="end" fill="currentColor">32 px</text>
  </g>
  <g id="static">
    <polygon points="200,173 494.4,343 459.1,363.4 164.7,193.4" fill="#4a545e" stroke="#0e1218" stroke-opacity="0.45"/><polygon points="164.7,210.4 459.1,380.4 459.1,363.4 164.7,193.4" fill="#3d454d" stroke="#0e1218" stroke-opacity="0.45"/><polygon points="494.4,360 459.1,380.4 459.1,363.4 494.4,343" fill="#2c3238" stroke="#0e1218" stroke-opacity="0.45"/><polygon points="380,35.2 438.9,69.2 380,103.2 321.1,69.2" fill="#3aa6a0" stroke="#0e1218" stroke-opacity="0.45"/><polygon points="321.1,144 380,178 380,103.2 321.1,69.2" fill="#308883" stroke="#0e1218" stroke-opacity="0.45"/><polygon points="438.9,144 380,178 380,103.2 438.9,69.2" fill="#236460" stroke="#0e1218" stroke-opacity="0.45"/><polygon points="560,118.8 624.8,156.2 577.7,183.4 512.9,146" fill="#8d5a3c" stroke="#0e1218" stroke-opacity="0.45"/><polygon points="512.9,207.2 577.7,244.6 577.7,183.4 512.9,146" fill="#744a31" stroke="#0e1218" stroke-opacity="0.45"/><polygon points="624.8,217.4 577.7,244.6 577.7,183.4 624.8,156.2" fill="#553624" stroke="#0e1218" stroke-opacity="0.45"/><polygon points="760,182.4 801.2,206.2 760,230 718.8,206.2" fill="#4f6b8f" stroke="#0e1218" stroke-opacity="0.45"/><polygon points="718.8,253.8 760,277.6 760,230 718.8,206.2" fill="#415875" stroke="#0e1218" stroke-opacity="0.45"/><polygon points="801.2,253.8 760,277.6 760,230 801.2,206.2" fill="#2f4056" stroke="#0e1218" stroke-opacity="0.45"/>
  </g>
  <g id="layer">
    <rect x="100" y="30" width="800" height="360" fill="#3a7de0" fill-opacity="0.18"/>
    <text x="912" y="60" font-size="18" text-anchor="start" fill="currentColor">cached layer</text>
    <text x="912" y="84" font-size="16" text-anchor="start" fill="currentColor">45 frames</text>
    <text x="912" y="104" font-size="16" text-anchor="start" fill="currentColor">unchanged</text>
  </g>
  <g id="live">
    <rect x="340" y="190" width="40" height="40" fill="#e8b83a" fill-opacity="0.45" stroke="#e8b83a" stroke-width="2"/><rect x="380" y="190" width="40" height="40" fill="#e8b83a" fill-opacity="0.45" stroke="#e8b83a" stroke-width="2"/><rect x="380" y="230" width="40" height="40" fill="#e8b83a" fill-opacity="0.45" stroke="#e8b83a" stroke-width="2"/><rect x="420" y="230" width="40" height="40" fill="#e8b83a" fill-opacity="0.45" stroke="#e8b83a" stroke-width="2"/><rect x="580" y="270" width="40" height="40" fill="#e8b83a" fill-opacity="0.45" stroke="#e8b83a" stroke-width="2"/><rect x="620" y="270" width="40" height="40" fill="#e8b83a" fill-opacity="0.45" stroke="#e8b83a" stroke-width="2"/><rect x="620" y="310" width="40" height="40" fill="#e8b83a" fill-opacity="0.45" stroke="#e8b83a" stroke-width="2"/>
    <rect x="388" y="216" width="22" height="22" rx="2" fill="#e23b3b" stroke="#0e1218"/>
    <rect x="624" y="292" width="24" height="24" rx="2" fill="#f0d12a" stroke="#0e1218"/>
    <text x="912" y="230" font-size="18" text-anchor="start" fill="#e8b83a">live tiles</text>
    <text x="912" y="254" font-size="16" text-anchor="start" fill="#e8b83a">redrawn</text>
  </g>
  <g id="rule">
    <text x="500" y="430" font-size="20" text-anchor="middle" fill="currentColor">more than 50% of the tiles live → draw the frame in full</text>
  </g>
</svg>
